<svg xmlns="http://www.w3.org/2000/svg" width="16" height="16" viewBox="0 0 16 16">  <defs>    <style>      .cls-1 {        fill: #5e5e5e;        fill-rule: evenodd;      }    </style>  </defs>  <path id="menu-white.svg" class="cls-1" d="M16,20V16h4v4H16Zm3-3H17v2h2V17Zm-3-7h4v4H16V10Zm1,3h2V11H17v2ZM16,4h4V8H16V4Zm1,3h2V5H17V7Zm-7,9h4v4H10V16Zm1,3h2V17H11v2Zm-1-9h4v4H10V10Zm1,3h2V11H11v2ZM10,4h4V8H10V4Zm1,3h2V5H11V7ZM4,16H8v4H4V16Zm1,3H7V17H5v2ZM4,10H8v4H4V10Zm1,3H7V11H5v2ZM4,4H8V8H4V4ZM5,7H7V5H5V7Z" transform="translate(-4 -4)"/></svg>